<?xml version="1.0" encoding="UTF-8"?><svg id="Layer_2" xmlns="http://www.w3.org/2000/svg" viewBox="0 0 501.49 50.93"><defs><style>.cls-1{fill:#003c4a;}.cls-2{fill:#f13d37;}</style></defs><g id="Layer_1-2"><path class="cls-1" d="M189.92,50.19l-1.43-17.48,3.06,4.32,1.33,9.11s5.51,4.18,5.95-.66c.44-4.84-1.25-10.25-1.66-11.64-.41-1.38-3.32-8.82-3.59-8.96-1.32-.68-7.34-3.38-7.34-3.38,0,0-5.26,2.38-7.79,2.58-2.52-.2-7.79-2.58-7.79-2.58,0,0-6.02,2.7-7.34,3.38-.28,.14-3.19,7.58-3.59,8.96-.41,1.38-2.1,6.8-1.66,11.64,.44,4.84,5.95,.66,5.95,.66l1.33-9.11,3.06-4.32-1.43,17.46,22.95,.02Z"/><path class="cls-1" d="M186.71,12.69c-.02,4.41-3.61,8.47-8.02,8.45-4.41-.02-7.96-4.04-7.94-8.45h15.96Z"/><path class="cls-2" d="M187.76,8.33h-.61c-.59-2.59-2.36-4.73-4.7-5.85l-.38,5.34c-.02,.34-.3,.59-.63,.59-.02,0-.03,0-.05,0-.35-.02-.61-.33-.59-.68l.4-5.65c0-.08,.03-.15,.06-.22v-.17c0-.94-.76-1.7-1.7-1.7h-1.63c-.94,0-1.7,.76-1.7,1.7v.33s-.05,.02-.08,.03c0,.01,0,.03,0,.04l.4,5.65c.02,.35-.24,.65-.59,.68-.02,0-.03,0-.05,0-.33,0-.61-.26-.63-.59l-.37-5.28c-2.28,1.13-3.99,3.24-4.57,5.78h-.61c-.48,0-.87,.59-.87,1.31s.39,1.31,.87,1.31h18.01c.48,0,.87-.59,.87-1.31s-.39-1.31-.87-1.31Z"/><g><path class="cls-2" d="M2.52,38.45c.12,.08,.39,.23,.8,.43,.41,.21,.92,.41,1.54,.61,.61,.21,1.32,.39,2.12,.55,.8,.16,1.63,.25,2.49,.25,1.27,0,2.29-.2,3.07-.61,.78-.41,1.37-1.08,1.78-2,.41-.92,.68-2.11,.8-3.57,.12-1.45,.18-3.23,.18-5.32V6.61h11.99V28.8c0,3.32-.18,6.34-.55,9.07-.37,2.73-1.17,5.05-2.4,6.98-1.23,1.93-3.02,3.42-5.38,4.49-2.36,1.06-5.52,1.6-9.5,1.6-3.69,0-6.84-.9-9.47-2.71l2.52-9.77Z"/><path class="cls-2" d="M48.87,50.87c-2.91,0-5.46-.46-7.65-1.38-2.19-.92-4.04-2.15-5.53-3.69-1.5-1.54-2.62-3.32-3.38-5.35-.76-2.03-1.14-4.15-1.14-6.36s.38-4.33,1.14-6.36c.76-2.03,1.88-3.81,3.38-5.35,1.5-1.54,3.34-2.77,5.53-3.69,2.19-.92,4.74-1.38,7.65-1.38s5.41,.46,7.62,1.38c2.21,.92,4.07,2.15,5.56,3.69,1.5,1.54,2.62,3.32,3.38,5.35,.76,2.03,1.14,4.15,1.14,6.36s-.38,4.33-1.14,6.36c-.76,2.03-1.89,3.81-3.38,5.35-1.5,1.54-3.35,2.77-5.56,3.69-2.21,.92-4.75,1.38-7.62,1.38Zm-5.72-16.78c0,2.17,.53,3.87,1.6,5.1,1.07,1.23,2.44,1.84,4.12,1.84s3.05-.61,4.12-1.84c1.06-1.23,1.6-2.93,1.6-5.1s-.53-3.87-1.6-5.1c-1.07-1.23-2.44-1.84-4.12-1.84s-3.05,.61-4.12,1.84c-1.07,1.23-1.6,2.93-1.6,5.1Z"/><path class="cls-2" d="M91.29,50.87c-4.88,0-8.36-1.88-10.45-5.66v5.04h-10.14V5.38h11.68V22.71c.94-1.76,2.27-3.1,4-4.03,1.72-.92,3.75-1.38,6.09-1.38,1.97,0,3.8,.43,5.5,1.29,1.7,.86,3.17,2.04,4.4,3.53,1.23,1.5,2.19,3.28,2.89,5.35,.7,2.07,1.05,4.31,1.05,6.73s-.38,4.64-1.14,6.67c-.76,2.03-1.8,3.78-3.13,5.26-1.33,1.48-2.92,2.63-4.76,3.47s-3.83,1.26-5.96,1.26Zm-3.38-9.84c1.93,0,3.47-.61,4.64-1.84,1.17-1.23,1.75-2.87,1.75-4.92,0-.98-.15-1.91-.46-2.77-.31-.86-.72-1.62-1.23-2.27-.51-.65-1.13-1.17-1.84-1.54-.72-.37-1.51-.55-2.37-.55-1.23,0-2.4,.44-3.5,1.32-1.11,.88-1.95,2.04-2.52,3.47v5.78c1.52,2.21,3.36,3.32,5.53,3.32Z"/><path class="cls-2" d="M131.06,50.87c-4.88,0-8.36-1.88-10.45-5.66v5.04h-10.14V5.38h11.68V22.71c.94-1.76,2.27-3.1,4-4.03,1.72-.92,3.75-1.38,6.09-1.38,1.97,0,3.8,.43,5.5,1.29,1.7,.86,3.17,2.04,4.4,3.53,1.23,1.5,2.19,3.28,2.89,5.35,.7,2.07,1.05,4.31,1.05,6.73s-.38,4.64-1.14,6.67c-.76,2.03-1.8,3.78-3.13,5.26-1.33,1.48-2.92,2.63-4.76,3.47s-3.83,1.26-5.96,1.26Zm-3.38-9.84c1.93,0,3.47-.61,4.64-1.84,1.17-1.23,1.75-2.87,1.75-4.92,0-.98-.15-1.91-.46-2.77-.31-.86-.72-1.62-1.23-2.27-.51-.65-1.13-1.17-1.84-1.54-.72-.37-1.51-.55-2.37-.55-1.23,0-2.4,.44-3.5,1.32-1.11,.88-1.95,2.04-2.52,3.47v5.78c1.52,2.21,3.36,3.32,5.53,3.32Z"/><path class="cls-1" d="M218.04,14.6V50.25h-4.3V6.61h3.32l28.89,36.33V6.67h4.3V50.25h-3.75l-28.46-35.65Z"/><path class="cls-1" d="M268.08,50.87c-1.52,0-2.92-.26-4.21-.77-1.29-.51-2.42-1.22-3.38-2.12-.96-.9-1.71-1.96-2.24-3.17-.53-1.21-.8-2.51-.8-3.9s.33-2.68,.98-3.87c.66-1.19,1.58-2.21,2.77-3.07,1.19-.86,2.6-1.53,4.24-2,1.64-.47,3.44-.71,5.41-.71,1.64,0,3.3,.14,4.98,.43,1.68,.29,3.18,.7,4.49,1.23v-2.89c0-2.83-.8-5.07-2.4-6.73-1.6-1.66-3.81-2.49-6.64-2.49-1.64,0-3.32,.33-5.04,.98-1.72,.66-3.46,1.6-5.23,2.83l-1.47-2.77c4.14-2.79,8.15-4.18,12.05-4.18s7.17,1.13,9.47,3.38c2.29,2.25,3.44,5.37,3.44,9.34v14.45c0,1.15,.51,1.72,1.54,1.72v3.69c-.7,.12-1.23,.18-1.6,.18-1.07,0-1.9-.27-2.49-.8-.59-.53-.91-1.27-.95-2.21l-.12-2.52c-1.48,1.93-3.33,3.4-5.56,4.43-2.23,1.02-4.64,1.54-7.22,1.54Zm.98-3.2c2.17,0,4.17-.41,5.99-1.23,1.82-.82,3.21-1.91,4.15-3.26,.37-.37,.65-.77,.83-1.2s.28-.83,.28-1.2v-5.23c-1.39-.53-2.84-.94-4.33-1.23-1.5-.29-3.02-.43-4.58-.43-2.95,0-5.35,.61-7.19,1.84-1.84,1.23-2.77,2.85-2.77,4.86,0,.98,.19,1.91,.58,2.77,.39,.86,.92,1.61,1.6,2.24,.68,.64,1.48,1.14,2.43,1.51,.94,.37,1.95,.55,3.01,.55Z"/><path class="cls-1" d="M341.17,50.25h-4.18v-17.89c0-3.73-.59-6.48-1.78-8.24-1.19-1.76-2.95-2.64-5.29-2.64-1.23,0-2.39,.23-3.47,.68-1.09,.45-2.09,1.09-3.01,1.91-.92,.82-1.73,1.79-2.43,2.92-.7,1.13-1.23,2.37-1.6,3.72v19.55h-4.18v-17.89c0-3.81-.57-6.58-1.72-8.3s-2.91-2.58-5.29-2.58-4.57,.84-6.46,2.52c-1.89,1.68-3.24,3.89-4.06,6.64v19.61h-4.18V18.23h3.81v7.25c1.31-2.46,3.03-4.37,5.16-5.75,2.13-1.37,4.49-2.06,7.07-2.06s4.87,.76,6.49,2.27c1.62,1.52,2.61,3.5,2.98,5.96,2.99-5.49,7.11-8.24,12.36-8.24,1.8,0,3.33,.33,4.58,.98,1.25,.66,2.25,1.59,3.01,2.8,.76,1.21,1.31,2.66,1.66,4.36,.35,1.7,.52,3.6,.52,5.69v18.75Z"/><path class="cls-1" d="M363.18,50.87c-2.21,0-4.26-.46-6.15-1.38-1.88-.92-3.5-2.14-4.86-3.66-1.35-1.52-2.41-3.27-3.17-5.26-.76-1.99-1.14-4.07-1.14-6.24s.37-4.4,1.11-6.42c.74-2.03,1.75-3.8,3.04-5.32,1.29-1.52,2.83-2.71,4.61-3.6,1.78-.88,3.74-1.32,5.87-1.32,2.7,0,5.1,.71,7.19,2.12,2.09,1.41,3.73,3.13,4.92,5.13V5.38h4.18V44.84c0,1.15,.49,1.72,1.48,1.72v3.69c-.62,.12-1.11,.18-1.48,.18-.98,0-1.84-.32-2.58-.95-.74-.63-1.11-1.4-1.11-2.31v-3.14c-1.27,2.09-2.99,3.75-5.16,4.98s-4.43,1.84-6.76,1.84Zm.92-3.69c1.02,0,2.12-.2,3.29-.61,1.17-.41,2.26-.97,3.29-1.69,1.02-.72,1.89-1.56,2.61-2.52,.72-.96,1.16-2,1.32-3.1v-9.9c-.41-1.11-1-2.14-1.78-3.1-.78-.96-1.67-1.81-2.67-2.55-1-.74-2.08-1.31-3.23-1.72-1.15-.41-2.27-.61-3.38-.61-1.72,0-3.28,.37-4.67,1.11-1.39,.74-2.59,1.71-3.6,2.92-1,1.21-1.77,2.59-2.3,4.15-.53,1.56-.8,3.16-.8,4.79,0,1.72,.31,3.36,.92,4.92,.61,1.56,1.45,2.92,2.52,4.09s2.33,2.1,3.78,2.8c1.45,.7,3.02,1.04,4.7,1.04Z"/><path class="cls-1" d="M396.31,50.87c-1.52,0-2.92-.26-4.21-.77-1.29-.51-2.42-1.22-3.38-2.12-.96-.9-1.71-1.96-2.24-3.17-.53-1.21-.8-2.51-.8-3.9s.33-2.68,.98-3.87c.66-1.19,1.58-2.21,2.77-3.07,1.19-.86,2.6-1.53,4.24-2,1.64-.47,3.44-.71,5.41-.71,1.64,0,3.3,.14,4.98,.43,1.68,.29,3.18,.7,4.49,1.23v-2.89c0-2.83-.8-5.07-2.4-6.73-1.6-1.66-3.81-2.49-6.64-2.49-1.64,0-3.32,.33-5.04,.98-1.72,.66-3.46,1.6-5.23,2.83l-1.47-2.77c4.14-2.79,8.15-4.18,12.05-4.18s7.17,1.13,9.47,3.38c2.29,2.25,3.44,5.37,3.44,9.34v14.45c0,1.15,.51,1.72,1.54,1.72v3.69c-.7,.12-1.23,.18-1.6,.18-1.07,0-1.9-.27-2.49-.8-.59-.53-.91-1.27-.95-2.21l-.12-2.52c-1.48,1.93-3.33,3.4-5.56,4.43-2.23,1.02-4.64,1.54-7.22,1.54Zm.98-3.2c2.17,0,4.17-.41,5.99-1.23,1.82-.82,3.21-1.91,4.15-3.26,.37-.37,.65-.77,.83-1.2s.28-.83,.28-1.2v-5.23c-1.39-.53-2.84-.94-4.33-1.23-1.5-.29-3.02-.43-4.58-.43-2.95,0-5.35,.61-7.19,1.84-1.84,1.23-2.77,2.85-2.77,4.86,0,.98,.19,1.91,.58,2.77,.39,.86,.92,1.61,1.6,2.24,.68,.64,1.48,1.14,2.43,1.51,.94,.37,1.95,.55,3.01,.55Z"/><path class="cls-1" d="M421.95,5.38h4.18V43c0,1.19,.33,2.12,.98,2.8,.65,.68,1.58,1.01,2.77,1.01,.45,0,.98-.06,1.6-.18,.62-.12,1.19-.29,1.72-.49l.74,3.38c-.78,.33-1.73,.59-2.86,.8-1.13,.2-2.1,.31-2.92,.31-1.93,0-3.44-.54-4.55-1.63-1.11-1.09-1.66-2.61-1.66-4.58V5.38Z"/><path class="cls-1" d="M452.31,50.87c-2.34,0-4.48-.44-6.42-1.32s-3.64-2.09-5.07-3.63c-1.43-1.54-2.55-3.31-3.35-5.32-.8-2.01-1.2-4.16-1.2-6.45s.4-4.37,1.2-6.36c.8-1.99,1.91-3.73,3.32-5.23,1.41-1.5,3.1-2.68,5.07-3.57,1.97-.88,4.1-1.32,6.39-1.32s4.48,.44,6.42,1.32c1.95,.88,3.62,2.08,5.01,3.6,1.39,1.52,2.48,3.26,3.26,5.23,.78,1.97,1.17,4.06,1.17,6.27v.98c0,.33-.02,.55-.06,.68h-27.42c.12,1.72,.52,3.31,1.2,4.76,.68,1.46,1.55,2.72,2.61,3.78,1.07,1.07,2.28,1.9,3.66,2.49,1.37,.59,2.84,.89,4.39,.89,1.02,0,2.05-.14,3.07-.43,1.02-.29,1.97-.68,2.83-1.17,.86-.49,1.64-1.1,2.34-1.81,.7-.72,1.23-1.51,1.6-2.37l3.63,.98c-.49,1.19-1.19,2.27-2.09,3.23-.9,.96-1.95,1.8-3.13,2.52-1.19,.72-2.5,1.27-3.93,1.66-1.44,.39-2.93,.58-4.49,.58Zm11.8-18.32c-.12-1.72-.52-3.29-1.2-4.7-.68-1.41-1.54-2.63-2.58-3.66-1.04-1.02-2.25-1.82-3.63-2.4-1.37-.57-2.84-.86-4.39-.86s-3.03,.29-4.43,.86c-1.39,.57-2.61,1.37-3.66,2.4-1.04,1.02-1.89,2.25-2.52,3.69-.64,1.44-1.01,2.99-1.14,4.67h23.54Z"/><path class="cls-1" d="M501.49,50.25h-4.18v-17.89c0-3.81-.56-6.58-1.69-8.3-1.13-1.72-2.86-2.58-5.19-2.58-1.23,0-2.46,.23-3.69,.68-1.23,.45-2.37,1.09-3.41,1.91-1.04,.82-1.98,1.79-2.8,2.92-.82,1.13-1.41,2.35-1.78,3.66v19.61h-4.18V18.23h3.81v7.25c1.31-2.34,3.19-4.22,5.62-5.66,2.44-1.43,5.09-2.15,7.96-2.15,1.76,0,3.26,.33,4.49,.98,1.23,.66,2.21,1.58,2.95,2.77,.74,1.19,1.27,2.64,1.6,4.36,.33,1.72,.49,3.63,.49,5.72v18.75Z"/></g></g></svg>